<svg width="485" height="545" viewBox="0 0 485 545" fill="none" xmlns="http://www.w3.org/2000/svg">
<g filter="url(#filter0_f_321_321)">
<rect x="15.2588" y="15" width="454.142" height="515" rx="40" fill="url(#paint0_linear_321_321)"/>
<rect x="17.2588" y="17" width="450.142" height="511" rx="38" stroke="#FDFDFD" stroke-width="4"/>
</g>
<path d="M375.502 14.8252H426.597C447.308 14.8252 464.097 31.6145 464.097 52.3252V88.703H413.002C392.291 88.703 375.502 71.9137 375.502 51.203V14.8252Z" fill="#FF9900"/>
<g clip-path="url(#clip0_321_321)">
<path d="M424.637 41.2742C423.593 41.284 422.565 41.5303 421.637 41.9933C420.708 42.4563 419.905 43.1233 419.291 43.9407C418.677 43.1233 417.873 42.4563 416.945 41.9933C416.017 41.5303 414.989 41.284 413.944 41.2742C412.052 41.3473 410.267 42.1422 408.979 43.4851C407.691 44.828 407.005 46.6096 407.071 48.4403C407.071 52.9242 411.83 57.7243 415.828 60.9621C416.799 61.7518 418.027 62.1847 419.295 62.1847C420.564 62.1847 421.791 61.7518 422.762 60.9621C426.756 57.7243 431.52 52.9242 431.52 48.4403C431.586 46.6081 430.899 44.8252 429.609 43.4821C428.319 42.1389 426.531 41.345 424.637 41.2742ZM420.795 58.6975C420.374 59.0405 419.841 59.2286 419.29 59.2286C418.74 59.2286 418.207 59.0405 417.786 58.6975C412.918 54.7495 410.126 51.0113 410.126 48.4403C410.061 47.3935 410.425 46.3641 411.14 45.5756C411.855 44.7872 412.863 44.3034 413.944 44.2293C415.026 44.3034 416.034 44.7872 416.749 45.5756C417.464 46.3641 417.828 47.3935 417.763 48.4403C417.763 48.8322 417.924 49.208 418.211 49.4851C418.497 49.7622 418.886 49.9179 419.291 49.9179C419.696 49.9179 420.084 49.7622 420.371 49.4851C420.657 49.208 420.818 48.8322 420.818 48.4403C420.753 47.3935 421.118 46.3641 421.833 45.5756C422.548 44.7872 423.556 44.3034 424.637 44.2293C425.719 44.3034 426.726 44.7872 427.441 45.5756C428.156 46.3641 428.521 47.3935 428.456 48.4403C428.456 51.0113 425.664 54.7495 420.795 58.6975Z" fill="white"/>
</g>
<path d="M68.0169 340.697C73.2569 340.697 75.8769 342.817 75.8769 347.057C75.8769 349.177 75.2369 350.777 73.9569 351.857C72.6769 352.917 70.6969 353.447 68.0169 353.447H64.4169V361.097H60.3369V340.697H68.0169ZM68.0169 350.537C69.2969 350.537 70.2469 350.257 70.8669 349.697C71.4869 349.137 71.7969 348.267 71.7969 347.087C71.7969 344.767 70.5369 343.607 68.0169 343.607H64.4169V350.537H68.0169ZM93.6193 344.567V361.097H90.6493L90.1693 359.567C88.2493 360.887 86.3693 361.547 84.5293 361.547C82.5293 361.547 81.1493 361.027 80.3893 359.987C79.6293 358.927 79.2493 357.407 79.2493 355.427V344.567H83.2093V354.977C83.2093 356.297 83.3893 357.227 83.7493 357.767C84.1093 358.307 84.7693 358.577 85.7293 358.577C86.9693 358.577 88.2793 358.057 89.6593 357.017V344.567H93.6193ZM108.393 347.897C107.413 347.897 106.483 348.007 105.603 348.227C104.743 348.427 103.803 348.827 102.783 349.427V361.097H98.8231V344.567H101.793L102.453 346.607C103.453 345.707 104.433 345.077 105.393 344.717C106.353 344.337 107.353 344.147 108.393 344.147V347.897ZM118.969 358.637C119.929 358.637 120.809 358.447 121.609 358.067C122.429 357.687 123.269 357.137 124.129 356.417L125.329 358.907C124.369 359.787 123.379 360.447 122.359 360.887C121.359 361.327 120.219 361.547 118.939 361.547C117.099 361.547 115.559 361.167 114.319 360.407C113.079 359.627 112.149 358.587 111.529 357.287C110.929 355.967 110.629 354.487 110.629 352.847C110.629 351.167 110.939 349.677 111.559 348.377C112.179 347.057 113.109 346.017 114.349 345.257C115.589 344.497 117.119 344.117 118.939 344.117C120.999 344.117 122.609 344.697 123.769 345.857C124.949 346.997 125.549 348.607 125.569 350.687C125.569 351.347 125.459 352.087 125.239 352.907H114.529C114.549 354.747 114.919 356.167 115.639 357.167C116.359 358.147 117.469 358.637 118.969 358.637ZM118.759 346.817C117.699 346.817 116.839 347.127 116.179 347.747C115.519 348.347 115.059 349.177 114.799 350.237H121.699V349.877C121.699 348.897 121.419 348.147 120.859 347.627C120.319 347.087 119.619 346.817 118.759 346.817ZM137.417 340.697H141.497V361.097H137.417V340.697ZM155.267 361.097H150.317L141.617 350.447V349.847L149.537 340.697H154.277L145.667 350.087L155.267 361.097ZM160.365 340.937C159.725 340.937 159.175 340.707 158.715 340.247C158.255 339.787 158.025 339.237 158.025 338.597C158.025 337.957 158.255 337.407 158.715 336.947C159.175 336.487 159.725 336.257 160.365 336.257C161.025 336.257 161.585 336.487 162.045 336.947C162.505 337.407 162.735 337.957 162.735 338.597C162.735 339.237 162.505 339.787 162.045 340.247C161.585 340.707 161.025 340.937 160.365 340.937ZM158.415 344.567H162.375V361.097H158.415V344.567ZM190.231 344.567L185.011 361.277H181.231L177.871 348.797L174.481 361.277H170.701L165.481 344.567H169.531L172.561 357.017L176.011 344.567H179.731L183.151 357.047L186.241 344.567H190.231ZM195.258 340.937C194.618 340.937 194.068 340.707 193.608 340.247C193.148 339.787 192.918 339.237 192.918 338.597C192.918 337.957 193.148 337.407 193.608 336.947C194.068 336.487 194.618 336.257 195.258 336.257C195.918 336.257 196.478 336.487 196.938 336.947C197.398 337.407 197.628 337.957 197.628 338.597C197.628 339.237 197.398 339.787 196.938 340.247C196.478 340.707 195.918 340.937 195.258 340.937ZM193.308 344.567H197.268V361.097H193.308V344.567ZM208.263 368.327C207.543 368.327 206.673 368.247 205.653 368.087L205.983 365.147C206.623 365.247 207.183 365.297 207.663 365.297C208.643 365.297 209.353 364.987 209.793 364.367C210.233 363.767 210.453 362.817 210.453 361.517V340.697H214.533V361.577C214.533 363.757 214.013 365.427 212.973 366.587C211.953 367.747 210.383 368.327 208.263 368.327ZM227.221 361.547C225.421 361.547 223.891 361.167 222.631 360.407C221.371 359.627 220.431 358.587 219.811 357.287C219.191 355.967 218.881 354.487 218.881 352.847C218.881 351.167 219.191 349.677 219.811 348.377C220.431 347.057 221.361 346.017 222.601 345.257C223.861 344.497 225.401 344.117 227.221 344.117C229.021 344.117 230.541 344.517 231.781 345.317C233.041 346.097 233.981 347.147 234.601 348.467C235.241 349.787 235.561 351.227 235.561 352.787C235.561 354.367 235.241 355.827 234.601 357.167C233.981 358.487 233.041 359.547 231.781 360.347C230.541 361.147 229.021 361.547 227.221 361.547ZM227.191 358.637C228.651 358.637 229.731 358.137 230.431 357.137C231.151 356.117 231.511 354.677 231.511 352.817C231.511 350.977 231.151 349.557 230.431 348.557C229.711 347.537 228.631 347.027 227.191 347.027C225.751 347.027 224.671 347.537 223.951 348.557C223.231 349.557 222.871 350.977 222.871 352.817C222.871 354.677 223.221 356.117 223.921 357.137C224.641 358.137 225.731 358.637 227.191 358.637ZM254.178 344.567L247.098 363.317C246.418 365.197 245.508 366.547 244.368 367.367C243.248 368.207 241.878 368.627 240.258 368.627C239.098 368.627 238.098 368.467 237.258 368.147L237.588 365.177C238.468 365.457 239.228 365.597 239.868 365.597C240.868 365.597 241.708 365.327 242.388 364.787C243.088 364.247 243.718 363.327 244.278 362.027L237.528 344.567H241.578L245.958 357.107L250.188 344.567H254.178Z" fill="#473525" fill-opacity="0.9"/>
<path d="M64.9867 459.466V439.466H66.268V459.466H64.9867ZM68.3851 446.068C68.3226 445.438 68.0544 444.948 67.5805 444.599C67.1065 444.25 66.4633 444.076 65.6508 444.076C65.0987 444.076 64.6325 444.154 64.2523 444.31C63.8721 444.461 63.5805 444.672 63.3773 444.943C63.1794 445.214 63.0805 445.521 63.0805 445.865C63.07 446.151 63.1299 446.401 63.2601 446.615C63.3956 446.828 63.5805 447.013 63.8148 447.169C64.0492 447.32 64.32 447.453 64.6273 447.568C64.9346 447.677 65.2628 447.771 65.6117 447.849L67.0492 448.193C67.7471 448.349 68.3878 448.557 68.9711 448.818C69.5544 449.078 70.0596 449.399 70.4867 449.779C70.9138 450.159 71.2445 450.607 71.4789 451.123C71.7185 451.638 71.8409 452.229 71.8461 452.896C71.8409 453.875 71.5909 454.724 71.0961 455.443C70.6065 456.156 69.8982 456.711 68.9711 457.107C68.0492 457.498 66.9372 457.693 65.6351 457.693C64.3435 457.693 63.2185 457.495 62.2601 457.099C61.307 456.703 60.5622 456.117 60.0258 455.341C59.4945 454.56 59.2159 453.594 59.1898 452.443H62.4633C62.4997 452.979 62.6534 453.427 62.9242 453.787C63.2003 454.141 63.5674 454.409 64.0258 454.591C64.4893 454.768 65.0128 454.857 65.5961 454.857C66.169 454.857 66.6664 454.774 67.0883 454.607C67.5154 454.44 67.8461 454.208 68.0805 453.912C68.3148 453.615 68.432 453.274 68.432 452.888C68.432 452.529 68.3253 452.227 68.1117 451.982C67.9034 451.737 67.5961 451.529 67.1898 451.357C66.7888 451.185 66.2966 451.029 65.7133 450.888L63.9711 450.451C62.6221 450.123 61.557 449.61 60.7758 448.912C59.9945 448.214 59.6065 447.274 59.6117 446.091C59.6065 445.123 59.8643 444.276 60.3851 443.552C60.9112 442.828 61.6325 442.263 62.5492 441.857C63.4659 441.451 64.5075 441.248 65.6742 441.248C66.8617 441.248 67.8982 441.451 68.7836 441.857C69.6742 442.263 70.3669 442.828 70.8617 443.552C71.3565 444.276 71.6117 445.115 71.6273 446.068H68.3851Z" fill="#FF3D00"/>
<path d="M80.9872 457.715C79.6201 457.715 78.4038 457.493 77.3384 457.049C76.279 456.599 75.4475 455.987 74.8438 455.211C74.2401 454.436 73.9382 453.557 73.9382 452.575C73.9382 451.817 74.1099 451.122 74.4532 450.488C74.8023 449.849 75.2758 449.319 75.8736 448.899C76.4714 448.473 77.1402 448.201 77.88 448.082V447.958C76.9094 447.763 76.1222 447.292 75.5185 446.547C74.9148 445.795 74.613 444.922 74.613 443.928C74.613 442.987 74.8882 442.149 75.4386 441.415C75.989 440.675 76.7436 440.095 77.7024 439.675C78.6672 439.249 79.7621 439.036 80.9872 439.036C82.2124 439.036 83.3044 439.249 84.2632 439.675C85.2279 440.101 85.9855 440.684 86.5359 441.424C87.0863 442.158 87.3645 442.992 87.3704 443.928C87.3645 444.928 87.0567 445.801 86.4471 446.547C85.8375 447.292 85.0563 447.763 84.1034 447.958V448.082C84.8313 448.201 85.4913 448.473 86.0831 448.899C86.6809 449.319 87.1544 449.849 87.5036 450.488C87.8587 451.122 88.0392 451.817 88.0451 452.575C88.0392 453.557 87.7344 454.436 87.1307 455.211C86.527 455.987 85.6925 456.599 84.6272 457.049C83.5677 457.493 82.3544 457.715 80.9872 457.715ZM80.9872 454.892C81.5969 454.892 82.1295 454.782 82.5853 454.563C83.041 454.338 83.3961 454.031 83.6506 453.64C83.911 453.243 84.0412 452.788 84.0412 452.273C84.0412 451.746 83.9081 451.281 83.6417 450.879C83.3754 450.471 83.0143 450.151 82.5586 449.92C82.1029 449.683 81.5791 449.565 80.9872 449.565C80.4013 449.565 79.8775 449.683 79.4159 449.92C78.9542 450.151 78.5902 450.471 78.3239 450.879C78.0635 451.281 77.9333 451.746 77.9333 452.273C77.9333 452.788 78.0605 453.243 78.315 453.64C78.5695 454.031 78.9276 454.338 79.3892 454.563C79.8509 454.782 80.3835 454.892 80.9872 454.892ZM80.9872 446.769C81.4962 446.769 81.949 446.665 82.3456 446.458C82.7421 446.251 83.0528 445.964 83.2777 445.597C83.5026 445.23 83.6151 444.807 83.6151 444.327C83.6151 443.854 83.5026 443.439 83.2777 443.084C83.0528 442.723 82.7451 442.442 82.3544 442.241C81.9638 442.034 81.5081 441.93 80.9872 441.93C80.4723 441.93 80.0166 442.034 79.6201 442.241C79.2235 442.442 78.9128 442.723 78.6879 443.084C78.4689 443.439 78.3594 443.854 78.3594 444.327C78.3594 444.807 78.4719 445.23 78.6968 445.597C78.9217 445.964 79.2324 446.251 79.6289 446.458C80.0255 446.665 80.4782 446.769 80.9872 446.769ZM92.4663 457.697C91.8804 457.697 91.3773 457.49 90.9571 457.076C90.5428 456.655 90.3356 456.152 90.3356 455.566C90.3356 454.986 90.5428 454.489 90.9571 454.075C91.3773 453.661 91.8804 453.454 92.4663 453.454C93.0345 453.454 93.5316 453.661 93.9578 454.075C94.3839 454.489 94.597 454.986 94.597 455.566C94.597 455.957 94.4964 456.315 94.2951 456.641C94.0998 456.96 93.8424 457.218 93.5228 457.413C93.2032 457.602 92.851 457.697 92.4663 457.697ZM104.063 457.866C102.536 457.86 101.222 457.484 100.121 456.738C99.0263 455.993 98.1829 454.912 97.591 453.498C97.0051 452.083 96.7151 450.382 96.721 448.393C96.721 446.41 97.014 444.721 97.5999 443.324C98.1918 441.927 99.0352 440.865 100.13 440.137C101.231 439.403 102.542 439.036 104.063 439.036C105.584 439.036 106.892 439.403 107.987 440.137C109.088 440.871 109.934 441.936 110.526 443.333C111.118 444.724 111.411 446.41 111.405 448.393C111.405 450.388 111.109 452.092 110.517 453.507C109.931 454.921 109.091 456.001 107.996 456.747C106.901 457.493 105.59 457.866 104.063 457.866ZM104.063 454.679C105.105 454.679 105.936 454.155 106.558 453.107C107.179 452.06 107.487 450.488 107.481 448.393C107.481 447.014 107.339 445.866 107.055 444.949C106.777 444.031 106.38 443.342 105.865 442.88C105.356 442.418 104.755 442.188 104.063 442.188C103.027 442.188 102.199 442.705 101.577 443.741C100.956 444.777 100.642 446.328 100.636 448.393C100.636 449.79 100.775 450.956 101.053 451.891C101.337 452.82 101.737 453.519 102.252 453.986C102.767 454.448 103.37 454.679 104.063 454.679ZM121.275 457.866C119.748 457.86 118.434 457.484 117.333 456.738C116.238 455.993 115.395 454.912 114.803 453.498C114.217 452.083 113.927 450.382 113.933 448.393C113.933 446.41 114.226 444.721 114.812 443.324C115.404 441.927 116.247 440.865 117.342 440.137C118.443 439.403 119.754 439.036 121.275 439.036C122.796 439.036 124.104 439.403 125.199 440.137C126.3 440.871 127.146 441.936 127.738 443.333C128.33 444.724 128.623 446.41 128.617 448.393C128.617 450.388 128.321 452.092 127.729 453.507C127.143 454.921 126.303 456.001 125.208 456.747C124.113 457.493 122.802 457.866 121.275 457.866ZM121.275 454.679C122.317 454.679 123.148 454.155 123.77 453.107C124.391 452.06 124.699 450.488 124.693 448.393C124.693 447.014 124.551 445.866 124.267 444.949C123.989 444.031 123.592 443.342 123.077 442.88C122.568 442.418 121.967 442.188 121.275 442.188C120.239 442.188 119.411 442.705 118.789 443.741C118.168 444.777 117.854 446.328 117.848 448.393C117.848 449.79 117.987 450.956 118.265 451.891C118.549 452.82 118.949 453.519 119.464 453.986C119.979 454.448 120.582 454.679 121.275 454.679Z" fill="#473525" fill-opacity="0.9"/>
<path d="M60.3773 386.409C60.0073 386.409 59.8223 386.224 59.8223 385.854V376.959C59.8223 376.589 60.0073 376.404 60.3773 376.404H63.9923C65.2773 376.404 66.2198 376.706 66.8198 377.311C67.4198 377.911 67.7198 378.854 67.7198 380.139V382.674C67.7198 383.959 67.4198 384.904 66.8198 385.509C66.2248 386.109 65.2823 386.409 63.9923 386.409H60.3773ZM60.9248 385.306H63.9923C64.6423 385.306 65.1598 385.224 65.5448 385.059C65.9298 384.894 66.2048 384.619 66.3698 384.234C66.5348 383.849 66.6173 383.329 66.6173 382.674V380.139C66.6173 379.489 66.5348 378.971 66.3698 378.586C66.2048 378.201 65.9298 377.926 65.5448 377.761C65.1598 377.591 64.6423 377.506 63.9923 377.506H60.9248V385.306ZM71.2228 383.139V383.559C71.2228 384.224 71.3478 384.681 71.5978 384.931C71.8478 385.181 72.3103 385.306 72.9853 385.306H74.2153C74.7653 385.306 75.1678 385.249 75.4228 385.134C75.6828 385.014 75.8503 384.806 75.9253 384.511C75.9653 384.346 76.0278 384.219 76.1128 384.129C76.2028 384.039 76.3353 383.994 76.5103 383.994C76.6953 383.994 76.8353 384.044 76.9303 384.144C77.0253 384.239 77.0578 384.379 77.0278 384.564C76.9328 385.189 76.6503 385.654 76.1803 385.959C75.7153 386.259 75.0603 386.409 74.2153 386.409H72.9853C72.0103 386.409 71.2878 386.176 70.8178 385.711C70.3528 385.246 70.1203 384.529 70.1203 383.559V381.834C70.1203 380.844 70.3528 380.119 70.8178 379.659C71.2878 379.194 72.0103 378.966 72.9853 378.976H74.2153C75.1903 378.976 75.9103 379.209 76.3753 379.674C76.8403 380.134 77.0728 380.854 77.0728 381.834V382.584C77.0728 382.954 76.8903 383.139 76.5253 383.139H71.2228ZM72.9853 380.079C72.3103 380.069 71.8478 380.189 71.5978 380.439C71.3478 380.689 71.2228 381.154 71.2228 381.834V382.036H75.9703V381.834C75.9703 381.159 75.8453 380.699 75.5953 380.454C75.3503 380.204 74.8903 380.079 74.2153 380.079H72.9853ZM81.4835 386.401C80.8535 386.401 80.361 386.271 80.006 386.011C79.651 385.746 79.4285 385.349 79.3385 384.819C79.3085 384.639 79.3435 384.496 79.4435 384.391C79.5485 384.286 79.6935 384.234 79.8785 384.234C80.0535 384.234 80.181 384.279 80.261 384.369C80.346 384.459 80.4135 384.594 80.4635 384.774C80.5185 384.979 80.6235 385.119 80.7785 385.194C80.9335 385.264 81.1685 385.299 81.4835 385.299H83.9435C84.3585 385.299 84.6385 385.229 84.7835 385.089C84.9335 384.944 85.0085 384.659 85.0085 384.234C85.0085 383.809 84.9335 383.524 84.7835 383.379C84.6385 383.234 84.3585 383.161 83.9435 383.161H81.521C80.826 383.161 80.3035 382.989 79.9535 382.644C79.6035 382.294 79.4285 381.771 79.4285 381.076C79.4285 380.366 79.5985 379.839 79.9385 379.494C80.2835 379.144 80.811 378.969 81.521 378.969H83.8685C85.0285 378.969 85.701 379.466 85.886 380.461C85.916 380.646 85.8785 380.789 85.7735 380.889C85.6735 380.989 85.531 381.039 85.346 381.039C85.176 381.039 85.0485 380.994 84.9635 380.904C84.8785 380.814 84.8135 380.686 84.7685 380.521C84.7185 380.346 84.6235 380.229 84.4835 380.169C84.3485 380.104 84.1435 380.071 83.8685 380.071H81.521C81.121 380.071 80.856 380.136 80.726 380.266C80.596 380.396 80.531 380.666 80.531 381.076C80.531 381.456 80.5985 381.716 80.7335 381.856C80.8735 381.991 81.136 382.059 81.521 382.059H83.9435C84.6735 382.059 85.216 382.239 85.571 382.599C85.931 382.959 86.111 383.504 86.111 384.234C86.111 384.964 85.931 385.509 85.571 385.869C85.216 386.224 84.6735 386.401 83.9435 386.401H81.4835ZM91.2373 386.409C90.2623 386.409 89.5398 386.176 89.0698 385.711C88.6048 385.241 88.3723 384.519 88.3723 383.544V381.819C88.3723 380.844 88.6023 380.124 89.0623 379.659C89.5273 379.194 90.2523 378.966 91.2373 378.976H92.4673C93.2073 378.976 93.7848 379.101 94.1998 379.351C94.6148 379.601 94.8748 379.986 94.9798 380.506C95.0148 380.691 94.9798 380.834 94.8748 380.934C94.7748 381.034 94.6298 381.084 94.4398 381.084C94.2698 381.084 94.1448 381.041 94.0648 380.956C93.9848 380.866 93.9148 380.741 93.8548 380.581C93.7848 380.396 93.6423 380.266 93.4273 380.191C93.2173 380.116 92.8973 380.079 92.4673 380.079H91.2373C90.5673 380.069 90.1048 380.189 89.8498 380.439C89.5998 380.684 89.4748 381.144 89.4748 381.819V383.544C89.4748 384.219 89.5998 384.681 89.8498 384.931C90.1048 385.181 90.5673 385.306 91.2373 385.306H92.4673C92.8973 385.306 93.2173 385.269 93.4273 385.194C93.6423 385.119 93.7848 384.986 93.8548 384.796C93.9148 384.631 93.9848 384.506 94.0648 384.421C94.1448 384.336 94.2723 384.294 94.4473 384.294C94.6323 384.294 94.7748 384.346 94.8748 384.451C94.9798 384.551 95.0148 384.691 94.9798 384.871C94.8748 385.391 94.6148 385.779 94.1998 386.034C93.7848 386.284 93.2073 386.409 92.4673 386.409H91.2373ZM98.0971 386.409C97.7271 386.409 97.5421 386.224 97.5421 385.854V379.524C97.5421 379.159 97.7271 378.976 98.0971 378.976C98.4621 378.976 98.6446 379.159 98.6446 379.524V380.304C98.9296 379.869 99.3046 379.539 99.7696 379.314C100.24 379.089 100.785 378.976 101.405 378.976C101.775 378.976 101.96 379.159 101.96 379.524C101.96 379.894 101.775 380.079 101.405 380.079C100.53 380.079 99.8596 380.254 99.3946 380.604C98.9296 380.949 98.6796 381.421 98.6446 382.021V385.854C98.6446 386.224 98.4621 386.409 98.0971 386.409ZM104.047 377.701C103.617 377.701 103.402 377.481 103.402 377.041V376.636C103.402 376.206 103.617 375.991 104.047 375.991H104.452C104.867 375.991 105.074 376.206 105.074 376.636V377.041C105.074 377.481 104.867 377.701 104.452 377.701H104.047ZM104.249 386.409C103.879 386.409 103.694 386.224 103.694 385.854V379.524C103.694 379.159 103.879 378.976 104.249 378.976C104.614 378.976 104.797 379.159 104.797 379.524V385.854C104.797 386.224 104.614 386.409 104.249 386.409ZM108.366 389.409C107.996 389.409 107.811 389.224 107.811 388.854V379.524C107.811 379.159 107.996 378.976 108.366 378.976C108.731 378.976 108.913 379.159 108.913 379.524V379.876C109.168 379.576 109.498 379.351 109.903 379.201C110.308 379.051 110.786 378.976 111.336 378.976H111.906C112.881 378.976 113.601 379.209 114.066 379.674C114.531 380.139 114.763 380.859 114.763 381.834V383.544C114.763 384.519 114.531 385.241 114.066 385.711C113.601 386.176 112.881 386.409 111.906 386.409H108.913V388.854C108.913 389.224 108.731 389.409 108.366 389.409ZM108.913 385.306H111.906C112.581 385.306 113.041 385.181 113.286 384.931C113.536 384.681 113.661 384.219 113.661 383.544V381.834C113.661 381.159 113.536 380.699 113.286 380.454C113.041 380.204 112.581 380.079 111.906 380.079H111.336C110.651 380.079 110.086 380.171 109.641 380.356C109.196 380.536 108.953 380.821 108.913 381.211V385.306ZM120.276 386.409C119.311 386.409 118.601 386.181 118.146 385.726C117.691 385.271 117.463 384.564 117.463 383.604V380.079H116.676C116.306 380.079 116.121 379.894 116.121 379.524C116.121 379.159 116.306 378.976 116.676 378.976H117.463V377.709C117.463 377.339 117.646 377.154 118.011 377.154C118.381 377.154 118.566 377.339 118.566 377.709V378.976H120.343C120.708 378.976 120.891 379.159 120.891 379.524C120.891 379.894 120.708 380.079 120.343 380.079H118.566V383.604C118.566 384.264 118.686 384.714 118.926 384.954C119.171 385.189 119.621 385.306 120.276 385.306C120.456 385.306 120.593 385.351 120.688 385.441C120.783 385.526 120.831 385.664 120.831 385.854C120.831 386.224 120.646 386.409 120.276 386.409ZM123.515 377.701C123.085 377.701 122.87 377.481 122.87 377.041V376.636C122.87 376.206 123.085 375.991 123.515 375.991H123.92C124.335 375.991 124.542 376.206 124.542 376.636V377.041C124.542 377.481 124.335 377.701 123.92 377.701H123.515ZM123.717 386.409C123.347 386.409 123.162 386.224 123.162 385.854V379.524C123.162 379.159 123.347 378.976 123.717 378.976C124.082 378.976 124.265 379.159 124.265 379.524V385.854C124.265 386.224 124.082 386.409 123.717 386.409ZM129.836 386.409C128.861 386.409 128.138 386.176 127.668 385.711C127.203 385.246 126.971 384.529 126.971 383.559V381.834C126.971 380.849 127.203 380.126 127.668 379.666C128.138 379.201 128.861 378.971 129.836 378.976H131.066C132.041 378.976 132.761 379.209 133.226 379.674C133.691 380.139 133.923 380.859 133.923 381.834V383.544C133.923 384.519 133.691 385.241 133.226 385.711C132.761 386.176 132.041 386.409 131.066 386.409H129.836ZM128.073 383.559C128.073 384.224 128.198 384.681 128.448 384.931C128.698 385.181 129.161 385.306 129.836 385.306H131.066C131.741 385.306 132.201 385.181 132.446 384.931C132.696 384.681 132.821 384.219 132.821 383.544V381.834C132.821 381.159 132.696 380.699 132.446 380.454C132.201 380.204 131.741 380.079 131.066 380.079H129.836C129.386 380.079 129.033 380.131 128.778 380.236C128.523 380.341 128.341 380.521 128.231 380.776C128.126 381.031 128.073 381.384 128.073 381.834V383.559ZM137.179 386.409C136.809 386.409 136.624 386.224 136.624 385.854V379.524C136.624 379.159 136.809 378.976 137.179 378.976C137.544 378.976 137.727 379.159 137.727 379.524V379.929C138.237 379.294 139.044 378.976 140.149 378.976H140.569C141.544 378.976 142.264 379.209 142.729 379.674C143.194 380.139 143.427 380.859 143.427 381.834V385.854C143.427 386.224 143.244 386.409 142.879 386.409C142.509 386.409 142.324 386.224 142.324 385.854V381.834C142.324 381.159 142.197 380.699 141.942 380.454C141.692 380.204 141.234 380.079 140.569 380.079H140.149C139.489 380.079 138.937 380.166 138.492 380.341C138.047 380.511 137.792 380.781 137.727 381.151V385.854C137.727 386.224 137.544 386.409 137.179 386.409ZM153.244 386.409C152.269 386.409 151.547 386.176 151.077 385.711C150.612 385.246 150.379 384.529 150.379 383.559V381.834C150.379 380.849 150.612 380.126 151.077 379.666C151.547 379.201 152.269 378.971 153.244 378.976H154.474C155.449 378.976 156.169 379.209 156.634 379.674C157.099 380.139 157.332 380.859 157.332 381.834V383.544C157.332 384.519 157.099 385.241 156.634 385.711C156.169 386.176 155.449 386.409 154.474 386.409H153.244ZM151.482 383.559C151.482 384.224 151.607 384.681 151.857 384.931C152.107 385.181 152.569 385.306 153.244 385.306H154.474C155.149 385.306 155.609 385.181 155.854 384.931C156.104 384.681 156.229 384.219 156.229 383.544V381.834C156.229 381.159 156.104 380.699 155.854 380.454C155.609 380.204 155.149 380.079 154.474 380.079H153.244C152.794 380.079 152.442 380.131 152.187 380.236C151.932 380.341 151.749 380.521 151.639 380.776C151.534 381.031 151.482 381.384 151.482 381.834V383.559ZM160.82 386.409C160.45 386.409 160.265 386.224 160.265 385.854V380.079H159.687C159.317 380.079 159.132 379.894 159.132 379.524C159.132 379.159 159.317 378.976 159.687 378.976H160.265V378.714C160.265 377.754 160.495 377.046 160.955 376.591C161.415 376.131 162.125 375.901 163.085 375.901C163.41 375.901 163.572 376.084 163.572 376.449C163.572 376.819 163.41 377.004 163.085 377.004C162.43 377.004 161.98 377.124 161.735 377.364C161.49 377.604 161.367 378.054 161.367 378.714V378.976H163.017C163.387 378.976 163.572 379.159 163.572 379.524C163.572 379.894 163.387 380.079 163.017 380.079H161.367V385.854C161.367 386.224 161.185 386.409 160.82 386.409ZM173.04 386.409C172.075 386.409 171.365 386.181 170.91 385.726C170.455 385.271 170.227 384.564 170.227 383.604V380.079H169.44C169.07 380.079 168.885 379.894 168.885 379.524C168.885 379.159 169.07 378.976 169.44 378.976H170.227V377.709C170.227 377.339 170.41 377.154 170.775 377.154C171.145 377.154 171.33 377.339 171.33 377.709V378.976H173.107C173.472 378.976 173.655 379.159 173.655 379.524C173.655 379.894 173.472 380.079 173.107 380.079H171.33V383.604C171.33 384.264 171.45 384.714 171.69 384.954C171.935 385.189 172.385 385.306 173.04 385.306C173.22 385.306 173.357 385.351 173.452 385.441C173.547 385.526 173.595 385.664 173.595 385.854C173.595 386.224 173.41 386.409 173.04 386.409ZM176.481 386.409C176.111 386.409 175.926 386.224 175.926 385.854V376.449C175.926 376.084 176.111 375.901 176.481 375.901C176.846 375.901 177.028 376.084 177.028 376.449V379.929C177.538 379.294 178.346 378.976 179.451 378.976H179.871C180.846 378.976 181.566 379.209 182.031 379.674C182.496 380.139 182.728 380.859 182.728 381.834V385.854C182.728 386.224 182.546 386.409 182.181 386.409C181.811 386.409 181.626 386.224 181.626 385.854V381.834C181.626 381.159 181.498 380.699 181.243 380.454C180.993 380.204 180.536 380.079 179.871 380.079H179.451C178.791 380.079 178.238 380.166 177.793 380.341C177.348 380.511 177.093 380.781 177.028 381.151V385.854C177.028 386.224 176.846 386.409 176.481 386.409ZM186.389 383.139V383.559C186.389 384.224 186.514 384.681 186.764 384.931C187.014 385.181 187.476 385.306 188.151 385.306H189.381C189.931 385.306 190.334 385.249 190.589 385.134C190.849 385.014 191.016 384.806 191.091 384.511C191.131 384.346 191.194 384.219 191.279 384.129C191.369 384.039 191.501 383.994 191.676 383.994C191.861 383.994 192.001 384.044 192.096 384.144C192.191 384.239 192.224 384.379 192.194 384.564C192.099 385.189 191.816 385.654 191.346 385.959C190.881 386.259 190.226 386.409 189.381 386.409H188.151C187.176 386.409 186.454 386.176 185.984 385.711C185.519 385.246 185.286 384.529 185.286 383.559V381.834C185.286 380.844 185.519 380.119 185.984 379.659C186.454 379.194 187.176 378.966 188.151 378.976H189.381C190.356 378.976 191.076 379.209 191.541 379.674C192.006 380.134 192.239 380.854 192.239 381.834V382.584C192.239 382.954 192.056 383.139 191.691 383.139H186.389ZM188.151 380.079C187.476 380.069 187.014 380.189 186.764 380.439C186.514 380.689 186.389 381.154 186.389 381.834V382.036H191.136V381.834C191.136 381.159 191.011 380.699 190.761 380.454C190.516 380.204 190.056 380.079 189.381 380.079H188.151ZM199.687 377.701C199.257 377.701 199.042 377.481 199.042 377.041V376.636C199.042 376.206 199.257 375.991 199.687 375.991H200.092C200.507 375.991 200.714 376.206 200.714 376.636V377.041C200.714 377.481 200.507 377.701 200.092 377.701H199.687ZM199.889 386.409C199.519 386.409 199.334 386.224 199.334 385.854V379.524C199.334 379.159 199.519 378.976 199.889 378.976C200.254 378.976 200.437 379.159 200.437 379.524V385.854C200.437 386.224 200.254 386.409 199.889 386.409ZM206.555 386.409C205.59 386.409 204.88 386.181 204.425 385.726C203.97 385.271 203.743 384.564 203.743 383.604V380.079H202.955C202.585 380.079 202.4 379.894 202.4 379.524C202.4 379.159 202.585 378.976 202.955 378.976H203.743V377.709C203.743 377.339 203.925 377.154 204.29 377.154C204.66 377.154 204.845 377.339 204.845 377.709V378.976H206.623C206.988 378.976 207.17 379.159 207.17 379.524C207.17 379.894 206.988 380.079 206.623 380.079H204.845V383.604C204.845 384.264 204.965 384.714 205.205 384.954C205.45 385.189 205.9 385.306 206.555 385.306C206.735 385.306 206.873 385.351 206.968 385.441C207.063 385.526 207.11 385.664 207.11 385.854C207.11 386.224 206.925 386.409 206.555 386.409ZM209.636 383.139V383.559C209.636 384.224 209.761 384.681 210.011 384.931C210.261 385.181 210.723 385.306 211.398 385.306H212.628C213.178 385.306 213.581 385.249 213.836 385.134C214.096 385.014 214.263 384.806 214.338 384.511C214.378 384.346 214.441 384.219 214.526 384.129C214.616 384.039 214.748 383.994 214.923 383.994C215.108 383.994 215.248 384.044 215.343 384.144C215.438 384.239 215.471 384.379 215.441 384.564C215.346 385.189 215.063 385.654 214.593 385.959C214.128 386.259 213.473 386.409 212.628 386.409H211.398C210.423 386.409 209.701 386.176 209.231 385.711C208.766 385.246 208.533 384.529 208.533 383.559V381.834C208.533 380.844 208.766 380.119 209.231 379.659C209.701 379.194 210.423 378.966 211.398 378.976H212.628C213.603 378.976 214.323 379.209 214.788 379.674C215.253 380.134 215.486 380.854 215.486 381.834V382.584C215.486 382.954 215.303 383.139 214.938 383.139H209.636ZM211.398 380.079C210.723 380.069 210.261 380.189 210.011 380.439C209.761 380.689 209.636 381.154 209.636 381.834V382.036H214.383V381.834C214.383 381.159 214.258 380.699 214.008 380.454C213.763 380.204 213.303 380.079 212.628 380.079H211.398ZM226.384 378.969C227.284 378.969 227.929 379.186 228.319 379.621C228.709 380.056 228.904 380.774 228.904 381.774V385.861C228.904 386.226 228.722 386.409 228.357 386.409C227.987 386.409 227.802 386.226 227.802 385.861V381.774C227.802 381.174 227.692 380.741 227.472 380.476C227.252 380.206 226.889 380.071 226.384 380.071H225.769C225.169 380.071 224.739 380.206 224.479 380.476C224.224 380.741 224.097 381.174 224.097 381.774V385.861C224.097 386.226 223.914 386.409 223.549 386.409C223.179 386.409 222.994 386.226 222.994 385.861V381.774C222.994 381.174 222.884 380.741 222.664 380.476C222.444 380.206 222.082 380.071 221.577 380.071H220.962C220.362 380.071 219.932 380.206 219.672 380.476C219.417 380.741 219.289 381.174 219.289 381.774V385.861C219.289 386.226 219.107 386.409 218.742 386.409C218.372 386.409 218.187 386.226 218.187 385.861V379.524C218.187 379.159 218.372 378.976 218.742 378.976C219.107 378.976 219.289 379.159 219.289 379.524V379.951C219.539 379.601 219.819 379.351 220.129 379.201C220.444 379.046 220.827 378.969 221.277 378.969H221.577C222.167 378.969 222.632 379.059 222.972 379.239C223.317 379.414 223.582 379.699 223.767 380.094C224.017 379.689 224.294 379.401 224.599 379.231C224.904 379.056 225.294 378.969 225.769 378.969H226.384Z" fill="#555555"/>
<defs>
<filter id="filter0_f_321_321" x="0.258789" y="0" width="484.142" height="545" filterUnits="userSpaceOnUse" color-interpolation-filters="sRGB">
<feFlood flood-opacity="0" result="BackgroundImageFix"/>
<feBlend mode="normal" in="SourceGraphic" in2="BackgroundImageFix" result="shape"/>
<feGaussianBlur stdDeviation="7.5" result="effect1_foregroundBlur_321_321"/>
</filter>
<linearGradient id="paint0_linear_321_321" x1="241.826" y1="517.5" x2="241.82" y2="15" gradientUnits="userSpaceOnUse">
<stop stop-color="#FF9B25" stop-opacity="0.87"/>
<stop offset="0.832677" stop-color="#FFF3C8"/>
</linearGradient>
<clipPath id="clip0_321_321">
<rect width="24.4402" height="23.6409" fill="white" transform="translate(407.071 39.4512)"/>
</clipPath>
</defs>
</svg>
